<?xml version="1.0" encoding="utf-8"?>
<!-- Generator: Adobe Illustrator 24.1.1, SVG Export Plug-In . SVG Version: 6.00 Build 0)  -->
<svg version="1.1" xmlns="http://www.w3.org/2000/svg" xmlns:xlink="http://www.w3.org/1999/xlink" x="0px" y="0px"
	 viewBox="0 0 150 150" style="enable-background:new 0 0 150 150;" xml:space="preserve">
<style type="text/css">
	.st0{fill:#FED136;}
	.st1{fill:#FFFFFF;}
</style>
<g id="Circle">
	<circle class="st0" cx="75" cy="76" r="74.99"/>
	<g>
		
			<rect x="56.7" y="40.66" transform="matrix(0.7053 -0.7089 0.7089 0.7053 -13.0236 67.7778)" class="st0" width="36.62" height="17.78"/>
		<path class="st1" d="M81.62,31.01l11.9,11.84L68.4,68.1L56.5,56.26L81.62,31.01 M81.62,29.6L55.09,56.26L68.4,69.51l26.53-26.67
			L81.62,29.6L81.62,29.6z"/>
	</g>
</g>
<g id="BlockPaving">
	<g>
		
			<rect x="31.15" y="41.14" transform="matrix(0.7053 -0.7089 0.7089 0.7053 -20.8894 49.8019)" class="st0" width="36.62" height="17.78"/>
		<path class="st1" d="M56.07,31.48l11.9,11.84L42.84,68.57l-11.9-11.84L56.07,31.48 M56.06,30.07L29.53,56.74l13.31,13.25
			l26.53-26.67L56.06,30.07L56.06,30.07z"/>
	</g>
	<g>
		
			<rect x="82.86" y="39.89" transform="matrix(0.7053 -0.7089 0.7089 0.7053 -4.7651 86.0946)" class="st0" width="36.62" height="17.78"/>
		<path class="st1" d="M107.78,30.24l11.9,11.84L94.56,67.32l-11.9-11.84L107.78,30.24 M107.78,28.82L81.25,55.49l13.31,13.25
			l26.53-26.67L107.78,28.82L107.78,28.82z"/>
	</g>
	<g>
		
			<rect x="30.6" y="66.89" transform="matrix(0.7053 -0.7089 0.7089 0.7053 -39.3091 57.0084)" class="st0" width="36.62" height="17.78"/>
		<path class="st1" d="M55.52,57.24l11.9,11.84L42.3,94.33L30.4,82.49L55.52,57.24 M55.52,55.83L28.99,82.49L42.3,95.74l26.53-26.67
			L55.52,55.83L55.52,55.83z"/>
	</g>
	<g>
		
			<rect x="56.76" y="66.12" transform="matrix(0.7053 -0.7089 0.7089 0.7053 -31.0503 75.3273)" class="st0" width="36.62" height="17.78"/>
		<path class="st1" d="M81.68,56.47l11.9,11.84L68.46,93.55l-11.9-11.84L81.68,56.47 M81.68,55.05L55.15,81.72l13.31,13.25
			L94.99,68.3L81.68,55.05L81.68,55.05z"/>
	</g>
	<g>
		
			<rect x="30.67" y="91.35" transform="matrix(0.7053 -0.7089 0.7089 0.7053 -56.6271 64.2622)" class="st0" width="36.62" height="17.78"/>
		<path class="st1" d="M55.59,81.7l11.9,11.84l-25.12,25.25l-11.9-11.84L55.59,81.7 M55.59,80.28l-26.53,26.67l13.31,13.25
			L68.9,93.53L55.59,80.28L55.59,80.28z"/>
	</g>
	<g>
		
			<rect x="55.5" y="92.36" transform="matrix(0.7053 -0.7089 0.7089 0.7053 -50.0286 82.1613)" class="st0" width="36.62" height="17.78"/>
		<path class="st1" d="M80.42,82.71l11.9,11.84l-25.12,25.25l-11.9-11.84L80.42,82.71 M80.41,81.3l-26.53,26.67l13.31,13.25
			l26.53-26.67L80.41,81.3L80.41,81.3z"/>
	</g>
	<g>
		
			<rect x="81.05" y="91.89" transform="matrix(0.7053 -0.7089 0.7089 0.7053 -42.1627 100.1387)" class="st0" width="36.62" height="17.78"/>
		<path class="st1" d="M105.97,82.24l11.9,11.84l-25.12,25.25l-11.9-11.84L105.97,82.24 M105.97,80.82l-26.53,26.67l13.31,13.25
			l26.53-26.67L105.97,80.82L105.97,80.82z"/>
	</g>
	<g>
		
			<rect x="81.59" y="66.13" transform="matrix(0.7053 -0.7089 0.7089 0.7053 -23.7428 92.9318)" class="st0" width="36.62" height="17.78"/>
		<path class="st1" d="M106.51,56.48l11.9,11.84L93.29,93.56l-11.9-11.84L106.51,56.48 M106.51,55.07L79.98,81.73l13.31,13.25
			l26.53-26.67L106.51,55.07L106.51,55.07z"/>
	</g>
</g>
</svg>
