<?xml version="1.0" encoding="utf-8"?>
<!-- Generator: Adobe Illustrator 24.1.1, SVG Export Plug-In . SVG Version: 6.00 Build 0)  -->
<svg version="1.1" xmlns="http://www.w3.org/2000/svg" xmlns:xlink="http://www.w3.org/1999/xlink" x="0px" y="0px"
	 viewBox="0 0 150 150" style="enable-background:new 0 0 150 150;" xml:space="preserve">
<style type="text/css">
	.st0{fill:#FED136;}
	.st1{fill:#FED136;stroke:#FFFFFF;stroke-width:3;stroke-miterlimit:10;}
	.st2{fill:none;stroke:#FED136;stroke-width:5;stroke-miterlimit:10;}
</style>
<g id="Circle">
	<circle class="st0" cx="75" cy="76" r="74.99"/>
</g>
<g id="BlockPaving">
	<rect x="47.67" y="50" class="st1" width="37.33" height="8.17"/>
	<rect x="85" y="50" class="st1" width="37.33" height="8.17"/>
	<rect x="29" y="58.17" class="st1" width="37.33" height="8.17"/>
	<rect x="66.33" y="58.17" class="st1" width="37.33" height="8.17"/>
	<rect x="47.67" y="66.33" class="st1" width="37.33" height="8.17"/>
	<rect x="85" y="66.33" class="st1" width="37.33" height="8.17"/>
	<rect x="29" y="74.5" class="st1" width="37.33" height="8.17"/>
	<rect x="66.33" y="74.5" class="st1" width="37.33" height="8.17"/>
	<rect x="103.67" y="58.17" class="st1" width="37.33" height="8.17"/>
	<rect x="103.67" y="74.5" class="st1" width="37.33" height="8.17"/>
	<rect x="10.33" y="66.33" class="st1" width="37.33" height="8.17"/>
	<rect x="10.33" y="50" class="st1" width="37.33" height="8.17"/>
	<path class="st2" d="M90.37,51.46"/>
	<rect x="47.67" y="82.67" class="st1" width="37.33" height="8.17"/>
	<rect x="85" y="82.67" class="st1" width="37.33" height="8.17"/>
	<rect x="29" y="90.83" class="st1" width="37.33" height="8.17"/>
	<rect x="66.33" y="90.83" class="st1" width="37.33" height="8.17"/>
	<rect x="103.67" y="90.83" class="st1" width="37.33" height="8.17"/>
	<rect x="10.33" y="82.67" class="st1" width="37.33" height="8.17"/>
	<path class="st2" d="M90.37,84.13"/>
</g>
</svg>
