<?xml version="1.0" encoding="utf-8"?>
<!-- Generator: Adobe Illustrator 24.1.1, SVG Export Plug-In . SVG Version: 6.00 Build 0)  -->
<svg version="1.1" id="Layer_1" xmlns="http://www.w3.org/2000/svg" xmlns:xlink="http://www.w3.org/1999/xlink" x="0px" y="0px"
	 viewBox="0 0 150 150" style="enable-background:new 0 0 150 150;" xml:space="preserve">
<style type="text/css">
	.st0{fill:#FED136;}
	.st1{fill:#FFFFFF;stroke:#FFFFFF;stroke-width:4;stroke-miterlimit:10;}
	.st2{fill:#FED136;stroke:#FED136;stroke-width:4;stroke-miterlimit:10;}
	.st3{fill:#FFFFFF;}
</style>
<circle class="st0" cx="78" cy="76" r="74.99"/>
<rect x="48" y="29" class="st1" width="55" height="36"/>
<polyline class="st1" points="29,33 75,17 123,33 "/>
<path class="st2" d="M92.5,36H59.5c-2.49,0-4.5,2.02-4.5,4.5V63.5c0,2.49,2.02,4.5,4.5,4.5H92.5c2.49,0,4.5-2.02,4.5-4.5V40.5
	C97,38.02,94.98,36,92.5,36z"/>
<rect x="53" y="61" class="st0" width="46" height="8"/>
<rect x="55" y="38" class="st3" width="42" height="2"/>
<rect x="55" y="42" class="st3" width="42" height="2"/>
<rect x="55" y="46" class="st3" width="42" height="2"/>
<rect x="55" y="50" class="st3" width="42" height="2"/>
<rect x="55" y="54" class="st3" width="42" height="2"/>
<rect x="55" y="58" class="st3" width="42" height="2"/>
<rect x="55" y="62" class="st3" width="42" height="2"/>
<rect x="55" y="65" class="st3" width="42" height="2"/>
<polygon class="st3" points="55,69 97,69 115,114 37,114 "/>
</svg>
